<?xml version="1.0" standalone="no"?><!DOCTYPE svg PUBLIC "-//W3C//DTD SVG 1.1//EN" "http://www.w3.org/Graphics/SVG/1.1/DTD/svg11.dtd"><svg t="1722356376140" class="icon" viewBox="0 0 1024 1024" version="1.1" xmlns="http://www.w3.org/2000/svg" p-id="12080" width="100" height="100" xmlns:xlink="http://www.w3.org/1999/xlink"><path d="M512 109.714286c222.183619 0 402.285714 180.102095 402.285714 402.285714S734.183619 914.285714 512 914.285714l-2.901333-0.121904c-104.545524-8.313905-189.415619-43.52-253.074286-105.130667L256 889.904762h-73.142857V658.285714H390.095238v73.142857h-106.105905c52.857905 65.048381 128.560762 101.400381 229.449143 109.714286l7.631238-0.121905C698.660571 836.217905 841.142857 690.736762 841.142857 512c0-181.784381-147.358476-329.142857-329.142857-329.142857S182.857143 330.215619 182.857143 512h-73.142857c0-222.183619 180.102095-402.285714 402.285714-402.285714zM463.238095 292.571429h73.142857v182.857142h182.857143v73.142858H463.238095V292.571429z" p-id="12081" fill="#25C84C"></path></svg>