<?xml version="1.0" standalone="no"?><!DOCTYPE svg PUBLIC "-//W3C//DTD SVG 1.1//EN" "http://www.w3.org/Graphics/SVG/1.1/DTD/svg11.dtd"><svg t="1722356165601" class="icon" viewBox="0 0 1024 1024" version="1.1" xmlns="http://www.w3.org/2000/svg" p-id="7469" xmlns:xlink="http://www.w3.org/1999/xlink" width="100" height="100"><path d="M512.47 493.781c289.13 0 507.135-93.333 507.135-217.173S801.6 59.392 512.47 59.392c-289.13 0-507.136 93.376-507.136 217.216S223.34 493.781 512.47 493.781m0-379.562c266.582 0 452.331 85.589 452.331 162.389 0 76.8-185.75 162.368-452.33 162.368-266.603 0-452.353-85.59-452.353-162.368 0.022-76.821 185.771-162.39 452.352-162.39m0 609.686c288.342 0 505.75-92.8 505.75-215.83 0-32.49-15.68-62.698-43.328-89.855-0.192-0.171-0.363-0.406-0.512-0.555-0.214-0.17-0.342-0.427-0.534-0.597l-0.128 0.149c-4.458-4.075-10.261-6.699-16.746-6.699-13.824 0-25.024 11.2-25.024 25.003 0 7.339 3.264 13.76 8.277 18.283l-0.085 0.128c16.661 16.746 26.09 37.248 26.09 54.165 0 77.504-186.346 163.797-453.738 163.797S58.752 585.6 58.752 508.096c0-19.285 5.419-35.819 26.71-54.635 0.255-0.213 0.511-0.448 0.767-0.682 0.171-0.15 0.278-0.278 0.448-0.448l-0.106-0.107c4.096-4.416 6.72-10.261 6.72-16.768 0-13.803-11.179-25.003-25.003-25.003-6.912 0-13.141 2.795-17.664 7.339l-0.15-0.17C22.465 444.906 6.7 475.37 6.7 508.074c0 123.029 217.45 215.829 505.77 215.829m462.166-77.184c-0.171-0.213-0.342-0.427-0.491-0.576l-0.17 0.128c-4.417-4.075-10.262-6.699-16.747-6.699-13.824 0-25.024 11.158-25.024 24.96 0 7.339 3.264 13.782 8.298 18.326l-0.128 0.085c16.683 16.79 26.112 37.29 26.112 54.165 0 77.504-186.346 163.798-453.738 163.798S59.008 814.613 59.008 737.109c0-19.242 5.44-35.797 26.688-54.592 0.277-0.256 0.512-0.448 0.768-0.704 0.17-0.128 0.299-0.298 0.448-0.426l-0.085-0.064c4.074-4.459 6.72-10.283 6.72-16.832 0-13.782-11.2-24.96-24.982-24.96-6.89 0-13.141 2.794-17.685 7.338l-0.128-0.17c-28.01 27.242-43.755 57.706-43.755 90.41 0 123.051 217.43 215.872 505.75 215.872 288.341 0 505.749-92.842 505.749-215.872 0-32.448-15.68-62.698-43.307-89.792-0.192-0.213-0.362-0.384-0.554-0.597" fill="" p-id="7470"></path></svg>