<?xml version="1.0" standalone="no"?><!DOCTYPE svg PUBLIC "-//W3C//DTD SVG 1.1//EN" "http://www.w3.org/Graphics/SVG/1.1/DTD/svg11.dtd"><svg t="1722356413187" class="icon" viewBox="0 0 1024 1024" version="1.1" xmlns="http://www.w3.org/2000/svg" p-id="16648" width="100" height="100" xmlns:xlink="http://www.w3.org/1999/xlink"><path d="M522.666667 64C693.226667 64 832 202.773333 832 373.333333c0 113.472-61.418667 212.864-152.746667 266.688L714.666667 640c88.234667 0 160 71.765333 160 160S802.901333 960 714.666667 960h-384C242.432 960 170.666667 888.234667 170.666667 800s71.765333-160 160-160l35.413333 0.021333C274.773333 586.197333 213.333333 486.826667 213.333333 373.333333 213.333333 202.773333 352.106667 64 522.666667 64z m192 640h-384a96.106667 96.106667 0 0 0-96 96c0 52.928 43.072 96 96 96h384c52.928 0 96-43.072 96-96S767.594667 704 714.666667 704z m-192-576C387.392 128 277.333333 238.058667 277.333333 373.333333S387.392 618.666667 522.666667 618.666667 768 508.608 768 373.333333 657.941333 128 522.666667 128z m85.333333 280.533333a32 32 0 0 1 32 32c0 62.336-50.730667 113.066667-113.066667 113.066667a113.216 113.216 0 0 1-113.066666-113.066667 32 32 0 1 1 64 0c0 27.050667 21.994667 49.066667 49.066666 49.066667 27.050667 0 49.066667-22.016 49.066667-49.066667a32 32 0 0 1 32-32z" fill="#25C84C" p-id="16649"></path></svg>