<?xml version="1.0" standalone="no"?><!DOCTYPE svg PUBLIC "-//W3C//DTD SVG 1.1//EN" "http://www.w3.org/Graphics/SVG/1.1/DTD/svg11.dtd"><svg t="1722178935869" class="icon" viewBox="0 0 1024 1024" version="1.1" xmlns="http://www.w3.org/2000/svg" p-id="12243" width="100" height="100" xmlns:xlink="http://www.w3.org/1999/xlink"><path d="M597.333333 366.336V256a42.666667 42.666667 0 0 1 12.501334-30.165333l128-128a42.666667 42.666667 0 0 1 68.309333 11.093333l36.309333 72.618667 72.618667 36.266666a42.666667 42.666667 0 0 1 11.093333 68.352l-128 128A42.666667 42.666667 0 0 1 768 426.666667h-110.336l-115.498667 115.498666a42.666667 42.666667 0 0 1-60.330666-60.330666L597.333333 366.336zM512 128a42.666667 42.666667 0 0 1 0 85.333333 298.666667 298.666667 0 1 0 298.666667 298.666667 42.666667 42.666667 0 0 1 85.333333 0 384 384 0 1 1-384-384z m0 170.666667a42.666667 42.666667 0 0 1 0 85.333333 128 128 0 1 0 128 128 42.666667 42.666667 0 0 1 85.333333 0 213.333333 213.333333 0 1 1-213.333333-213.333333z m170.666667-25.002667V341.333333h67.669333l73.642667-73.642666-32.426667-16.213334a42.666667 42.666667 0 0 1-19.029333-19.072l-16.213334-32.384L682.666667 273.664z" p-id="12244" fill="#D1D1D1"></path></svg>