<?xml version="1.0" standalone="no"?><!DOCTYPE svg PUBLIC "-//W3C//DTD SVG 1.1//EN" "http://www.w3.org/Graphics/SVG/1.1/DTD/svg11.dtd"><svg t="1722179112685" class="icon" viewBox="0 0 1024 1024" version="1.1" xmlns="http://www.w3.org/2000/svg" p-id="18036" width="100" height="100" xmlns:xlink="http://www.w3.org/1999/xlink"><path d="M512 85.312c38.208 0 75.264 5.056 110.528 14.464L531.84 190.464a128 128 0 0 0-18.176 22.848H512A298.688 298.688 0 1 0 810.688 512v-1.664c8.192-5.12 15.872-11.2 22.848-18.176l90.688-90.688A426.688 426.688 0 1 1 512 85.312z m-17.664 214.08c0 36.352-1.792 73.088 0.192 109.44l-23.04 23.04a85.312 85.312 0 1 0 120.64 120.64l23.04-23.04c36.288 1.984 73.088 0.192 109.44 0.192a213.376 213.376 0 1 1-230.272-230.272z m295.168-208.64c16 6.592 26.368 22.144 26.368 39.36v78.08h77.952a42.688 42.688 0 0 1 30.208 72.768L773.12 431.808a42.624 42.624 0 0 1-30.208 12.544H640L562.048 522.368a42.688 42.688 0 0 1-60.352-60.352l78.08-78.08V280.96c0-11.264 4.48-22.144 12.416-30.144l150.848-150.848a42.688 42.688 0 0 1 46.528-9.28z" p-id="18037" fill="#25C84C"></path></svg>