<?xml version="1.0" standalone="no"?><!DOCTYPE svg PUBLIC "-//W3C//DTD SVG 1.1//EN" "http://www.w3.org/Graphics/SVG/1.1/DTD/svg11.dtd"><svg t="1722179651303" class="icon" viewBox="0 0 1024 1024" version="1.1" xmlns="http://www.w3.org/2000/svg" p-id="47503" width="100" height="100" xmlns:xlink="http://www.w3.org/1999/xlink"><path d="M512.5 139c127.698 0 240.418 64.146 307.73 161.986 42.154 4.876 78.21 14.154 106.665 27.85 36.517 17.577 61.155 42.782 69.836 75.199 8.682 32.417-0.062 66.57-22.907 100.06-11.177 16.385-25.82 32.761-43.606 48.946l-1.918 1.733a427.896 427.896 0 0 1-17.258 14.667l-2.142 1.717c-7.536 6.006-15.497 11.975-23.866 17.897l-2.403 1.691a599.399 599.399 0 0 1-5.923 4.094C839.234 761.502 690.402 886 512.5 886c-106.517 0-202.613-44.63-270.626-116.22a636.95 636.95 0 0 1-21.469-1.498 571.445 571.445 0 0 1-8.722-0.827l-2.871-0.303-2.854-0.316c-3.791-0.43-7.534-0.895-11.227-1.396l-2.76-0.382-2.742-0.396c-35.514-5.228-66.219-13.826-91.109-25.804-36.525-17.577-61.169-42.784-69.851-75.205-9.07-33.865 0.852-69.536 25.979-104.444 19.714-27.388 49.074-54.74 86.51-81.137l-0.01-0.002C158.116 287.933 317.92 139 512.5 139z m280.002 505.19l-1.721 0.864c-65.857 33.284-143.146 62.464-225.826 84.63-78.317 20.996-155.59 34.122-226.136 38.951C388.33 802.318 448.117 822 512.5 822c123.765 0 230.555-72.731 280.003-177.81zM512.5 203c-170.829 0-309.318 138.563-309.318 309.5 0 73.541 25.634 141.09 68.448 194.192 80.92 0.915 177.713-12.273 276.752-38.825 104.482-28.01 199.367-67.65 270.369-111.668a311.21 311.21 0 0 0 3.066-43.699c0-170.937-138.489-309.5-309.317-309.5zM141.96 558.304l-1.132 1.007a314.597 314.597 0 0 0-8.165 7.504l-1.547 1.485c-0.511 0.494-1.018 0.989-1.521 1.482l-1.495 1.48c-8.648 8.62-15.98 17.098-21.91 25.336l-0.879 1.234c-0.578 0.82-1.14 1.633-1.685 2.44l-0.807 1.207c-0.265 0.401-0.526 0.8-0.783 1.198l-0.758 1.19c-0.25 0.394-0.494 0.788-0.735 1.18l-0.712 1.17c-9.792 16.333-12.65 30.02-9.742 40.88 6.142 22.935 40.813 42.843 99.426 52.82a371.123 371.123 0 0 1-47.555-141.613z m716.761-185.769l2.13 5.392c16.124 41.752 24.965 87.13 24.965 134.573l-0.043-5.53c38.269-34.354 54.784-65.29 49.136-86.38-5.28-19.717-31.647-37.198-76.188-48.055z" p-id="47504" fill="#D1D1D1"></path></svg>